<?xml version="1.0" encoding="UTF-8" standalone="no"?>
<svg xmlns:rdf="http://www.w3.org/1999/02/22-rdf-syntax-ns#" xmlns="http://www.w3.org/2000/svg" height="466.91" width="466.91" version="1.1" xmlns:cc="http://creativecommons.org/ns#" xmlns:dc="http://purl.org/dc/elements/1.1/" viewBox="0 0 466.91408 466.91407">
 <g transform="translate(-23.02 -10)">
  <path style="fill:#d9231f;fill-rule:evenodd" d="m244.97 38.869a230.56 230.56 0 0 0 -207.55 130.6l38.576 38.576a180 180 0 0 1 168.97 -118.61 180 180 0 0 1 180 180 180 180 0 0 1 -118.55 169.02l38.455 38.455a230.56 230.56 0 0 0 130.65 -207.48 230.56 230.56 0 0 0 -230.56 -230.57z"/>
 </g>
 <g transform="translate(-23.02 -10)">
  <circle r="37.5" style="fill:#d9231f;fill-rule:evenodd" cx="244.97" cy="269.44"/>
 </g>
 <g transform="translate(-23.02 -10)">
  <path id="needle" style="stroke:#d9231f;stroke-width:40;fill:none" d="m244.97 269.44 81.66-140.11"/>
 </g>
 <g transform="translate(-23.02 -10)">
  <rect style="fill:#d9231f;fill-rule:evenodd" height="50" width="125" y="10" x="182.47"/>
 </g>
</svg>
